<svg width="18" height="15" viewBox="0 0 18 15" xmlns="http://www.w3.org/2000/svg">
<path d="M17.4024 6.92051C15.5508 2.43506 12.752 0.177734 9.00001 0.177734C5.2461 0.177734 2.44923 2.43506 0.597662 6.92275C0.523395 7.1036 0.484879 7.30112 0.484879 7.50112C0.484879 7.70112 0.523395 7.89864 0.597662 8.07949C2.44923 12.5649 5.24805 14.8223 9.00001 14.8223C12.7539 14.8223 15.5508 12.5649 17.4024 8.07725C17.5527 7.71338 17.5527 7.29111 17.4024 6.92051ZM9.00001 13.2051C5.84962 13.2051 3.54298 11.3678 1.91602 7.5C3.54298 3.63223 5.84962 1.79492 9.00001 1.79492C12.1504 1.79492 14.457 3.63223 16.084 7.5C14.459 11.3678 12.1524 13.2051 9.00001 13.2051ZM8.92188 3.54688C7.02345 3.54688 5.48438 5.3168 5.48438 7.5C5.48438 9.6832 7.02345 11.4531 8.92188 11.4531C10.8203 11.4531 12.3594 9.6832 12.3594 7.5C12.3594 5.3168 10.8203 3.54688 8.92188 3.54688ZM8.92188 10.0156C7.7129 10.0156 6.73438 8.89033 6.73438 7.5C6.73438 6.10967 7.7129 4.98438 8.92188 4.98438C10.1309 4.98438 11.1094 6.10967 11.1094 7.5C11.1094 8.89033 10.1309 10.0156 8.92188 10.0156Z"/>
</svg>
